<?xml version="1.0" encoding="UTF-8" standalone="no"?>
<!-- Created with Inkscape (http://www.inkscape.org/) -->

<svg
   width="127.10484"
   height="127.10484"
   viewBox="0 0 127.10484 127.10484"
   version="1.1"
   id="svg1"
   inkscape:version="1.4.3 (0d15f750, 2025-12-25)"
   sodipodi:docname="knit-master.svg"
   xml:space="preserve"
   inkscape:export-batch-name="knit-master"
   xmlns:inkscape="http://www.inkscape.org/namespaces/inkscape"
   xmlns:sodipodi="http://sodipodi.sourceforge.net/DTD/sodipodi-0.dtd"
   xmlns="http://www.w3.org/2000/svg"
   xmlns:svg="http://www.w3.org/2000/svg"><sodipodi:namedview
     id="namedview1"
     pagecolor="#ffffff"
     bordercolor="#000000"
     borderopacity="0.25"
     inkscape:showpageshadow="2"
     inkscape:pageopacity="0.0"
     inkscape:pagecheckerboard="0"
     inkscape:deskcolor="#d1d1d1"
     inkscape:document-units="mm"
     showgrid="true"
     inkscape:zoom="0.98602392"
     inkscape:cx="331.63496"
     inkscape:cy="1527.8534"
     inkscape:window-width="1440"
     inkscape:window-height="872"
     inkscape:window-x="1920"
     inkscape:window-y="28"
     inkscape:window-maximized="0"
     inkscape:current-layer="layer1"><inkscape:grid
       id="grid1"
       units="mm"
       originx="-678.71507"
       originy="-926.56358"
       spacingx="3.7795276"
       spacingy="3.7795276"
       empcolor="#0099e5"
       empopacity="0.30196078"
       color="#0099e5"
       opacity="0.14901961"
       empspacing="5"
       enabled="true"
       visible="true" /><inkscape:page
       x="0"
       y="0"
       width="127.10484"
       height="127.10484"
       id="page1"
       margin="0"
       bleed="0" /></sodipodi:namedview><defs
     id="defs1" /><g
     inkscape:label="Layer 1"
     inkscape:groupmode="layer"
     id="layer1"
     transform="translate(-678.71509,-926.5636)"><g
       id="g69"
       inkscape:label="s2kp2"><rect
         style="fill:none;stroke:none;stroke-width:0.895155;stroke-dasharray:none;stroke-opacity:1"
         id="rect1-2-15-9-7-8-8-0-1"
         width="127.10484"
         height="127.10484"
         x="678.71509"
         y="926.5636" /><path
         style="baseline-shift:baseline;display:inline;overflow:visible;vector-effect:none;stroke-linecap:round;enable-background:accumulate;stop-color:#000000"
         d="m 699.84734,947.71191 c 85.93294,73.38649 85.93294,73.38649 85.93294,73.38649"
         id="path42" /><g
         id="g63"
         transform="translate(0.58245446,6.7818115)"><g
           id="path34-1-3-4-5-2-9-9"
           transform="matrix(-1,0,0,1,882.2309,-534.41674)"
           style="stroke-width:5;stroke-dasharray:none"><path
             style="baseline-shift:baseline;display:inline;overflow:visible;stroke-width:5;stroke-linecap:round;stroke-dasharray:none;enable-background:accumulate;stop-color:#000000;stop-opacity:1"
             d="m 142.87405,1520.2396 c 39.50951,35.2755 39.50951,35.2755 39.50951,35.2755"
             id="path44" /><path
             style="baseline-shift:baseline;display:inline;overflow:visible;stroke-width:5;stroke-linecap:round;stroke-dasharray:none;enable-background:accumulate;stop-color:#000000;stop-opacity:1"
             d="m 142.73242,1517.7441 a 2.5,2.5 0 0 0 -1.72265,0.8301 2.5,2.5 0 0 0 0.19921,3.5293 l 39.50977,35.2774 a 2.5,2.5 0 0 0 3.5293,-0.2012 2.5,2.5 0 0 0 -0.19922,-3.5293 l -39.50977,-35.2754 a 2.5,2.5 0 0 0 -1.80664,-0.6309 z"
             id="path45" /></g><g
           id="path34-1-3-4-5-2-9-9-7"
           transform="translate(601.13921,-534.41674)"
           style="stroke-width:5;stroke-dasharray:none"><path
             style="baseline-shift:baseline;display:inline;overflow:visible;stroke-width:5;stroke-linecap:round;stroke-dasharray:none;enable-background:accumulate;stop-color:#000000;stop-opacity:1"
             d="m 142.87405,1520.2396 c 39.50951,35.2755 39.50951,35.2755 39.50951,35.2755"
             id="path44-3" /><path
             style="baseline-shift:baseline;display:inline;overflow:visible;stroke-width:5;stroke-linecap:round;stroke-dasharray:none;enable-background:accumulate;stop-color:#000000;stop-opacity:1"
             d="m 142.73242,1517.7441 a 2.5,2.5 0 0 0 -1.72265,0.8301 2.5,2.5 0 0 0 0.19921,3.5293 l 39.50977,35.2774 a 2.5,2.5 0 0 0 3.5293,-0.2012 2.5,2.5 0 0 0 -0.19922,-3.5293 l -39.50977,-35.2754 a 2.5,2.5 0 0 0 -1.80664,-0.6309 z"
             id="path45-0" /></g><path
           style="fill:currentColor;stroke:currentColor;stroke-width:5;stroke-linecap:round;stroke-dasharray:none;stroke-opacity:1"
           d="m 741.68506,945.57001 c 0,75.52839 0,75.52839 0,75.52839"
           id="path34-1-3-3-5-3-0-1" /></g></g></g></svg>
