<svg width="127.105" height="127.105" viewBox="0 0 127.105 127.105"><path d="M663.365 57.283H790.47v127.105H663.365Z" style="fill:none;stroke-width:.895155" transform="translate(-663.365 -57.283)"/><g style="stroke-width:10.0172;stroke-dasharray:none"><g style="opacity:1"><path d="m53.302 405.736 95.063 91.817M56.781 402.133l-6.959 7.205 95.063 91.818 6.96-7.205z" style="baseline-shift:baseline;display:inline;overflow:visible;vector-effect:none;stop-color:#000;stop-opacity:1" transform="matrix(.49914 0 0 -.49914 13.222 309.18)"/></g><g style="opacity:1"><path d="m148.365 405.736-95.063 91.817M144.885 402.133 49.822 493.95l6.96 7.205 95.064-91.818z" style="baseline-shift:baseline;display:inline;overflow:visible;vector-effect:none;stop-color:#000;stop-opacity:1" transform="matrix(.49914 0 0 -.49914 13.222 309.18)"/></g></g><g style="opacity:1"><path d="M55.29 1658.12c47.288 47.287 47.56 47.015 47.56 47.015" style="baseline-shift:baseline;display:inline;overflow:visible;vector-effect:none;stroke-linecap:square;paint-order:markers fill stroke;stop-color:#000;stop-opacity:1" transform="matrix(1 0 0 -1 -39.864 1726.252)"/><path d="m55.291 1654.584-3.535 3.535 1.767 1.768c23.647 23.647 35.54 35.405 41.532 41.261 2.996 2.929 4.516 4.378 5.308 5.118.396.37.604.559.762.693.079.067.132.116.268.21.067.049.135.106.382.224.062.029.242.1.243.1l.437.11.854-.011.505-.15.368-.192 2.203-2.115-3.535-3.535-.06.06a324 324 0 0 1-4.24-4.087c-5.964-5.83-17.851-17.58-41.491-41.22z" style="baseline-shift:baseline;display:inline;overflow:visible;vector-effect:none;stroke-linecap:square;paint-order:markers fill stroke;stop-color:#000;stop-opacity:1" transform="matrix(1 0 0 -1 -39.864 1726.252)"/></g><g style="opacity:1"><path d="M151.542 1658.12c-47.287 47.287-47.56 47.015-47.56 47.015" style="baseline-shift:baseline;display:inline;overflow:visible;vector-effect:none;stroke-linecap:square;paint-order:markers fill stroke;stop-color:#000;stop-opacity:1" transform="matrix(1 0 0 -1 -39.864 1726.252)"/><path d="m151.541 1654.584-1.768 1.768c-23.64 23.64-35.525 35.39-41.49 41.22-2.421 2.367-3.389 3.282-4.242 4.09l-.059-.062-3.535 3.535 1.768 1.768.435.348 1.729.353.435-.111s.18-.07.243-.1c.247-.118.315-.175.382-.223.136-.095.19-.144.268-.21.158-.135.368-.325.764-.694.792-.74 2.31-2.19 5.306-5.118 5.993-5.856 17.885-17.614 41.532-41.261l1.77-1.768z" style="baseline-shift:baseline;display:inline;overflow:visible;vector-effect:none;stroke-linecap:square;paint-order:markers fill stroke;stop-color:#000;stop-opacity:1" transform="matrix(1 0 0 -1 -39.864 1726.252)"/></g></svg>