<svg width="127.105" height="127.105" viewBox="0 0 127.105 127.105"><path d="M46.087 1734.787h127.105v127.105H46.087Z" style="fill:none;stroke-width:.895155" transform="translate(-46.087 -1734.787)"/><g style="stroke-width:10.0172;stroke-dasharray:none"><g style="opacity:1"><path d="m53.302 405.736 95.063 91.817M56.781 402.133l-6.959 7.205 95.063 91.818 6.96-7.205z" style="baseline-shift:baseline;display:inline;overflow:visible;vector-effect:none;stop-color:#000;stop-opacity:1" transform="translate(13.222 -182.075)scale(.49914)"/></g><g style="opacity:1"><path d="m148.365 405.736-95.063 91.817M144.885 402.133 49.822 493.95l6.96 7.205 95.064-91.818z" style="baseline-shift:baseline;display:inline;overflow:visible;vector-effect:none;stop-color:#000;stop-opacity:1" transform="translate(13.222 -182.075)scale(.49914)"/></g></g><g style="opacity:1"><path d="M55.29 1658.12c47.288 47.287 47.56 47.015 47.56 47.015" style="baseline-shift:baseline;display:inline;overflow:visible;vector-effect:none;stroke-linecap:round;stroke-miterlimit:3;paint-order:markers fill stroke;stop-color:#000;stop-opacity:1" transform="translate(-39.864 -1599.147)"/><path d="M53.523 1656.352a2.5 2.5 0 0 0 0 3.535c23.647 23.647 35.54 35.405 41.532 41.261 2.996 2.929 4.516 4.378 5.308 5.118.396.37.604.559.762.693.079.067.132.116.268.21.067.049.135.106.382.224.062.029.242.1.243.1l.437.11.854-.011.505-.15.368-.192a2.5 2.5 0 0 0 .435-3.883 2.5 2.5 0 0 0-3.535 0l.436-.347 1.726-.354.436.111s.179.07.24.098c.244.116.303.171.357.21.108.075.11.083.088.065a23 23 0 0 1-.592-.539c-.736-.687-2.24-2.124-5.222-5.039-5.965-5.83-17.852-17.58-41.492-41.22a2.5 2.5 0 0 0-3.536 0" style="baseline-shift:baseline;display:inline;overflow:visible;vector-effect:none;stroke-linecap:round;stroke-miterlimit:3;paint-order:markers fill stroke;stop-color:#000;stop-opacity:1" transform="translate(-39.864 -1599.147)"/></g><g style="opacity:1"><path d="M151.542 1658.12c-47.287 47.287-47.56 47.015-47.56 47.015" style="baseline-shift:baseline;display:inline;overflow:visible;vector-effect:none;stroke-linecap:round;paint-order:markers fill stroke;stop-color:#000;stop-opacity:1" transform="translate(-39.864 -1599.147)"/><path d="M151.541 1655.62a2.5 2.5 0 0 0-1.768.732c-23.64 23.64-35.525 35.39-41.49 41.22-2.982 2.915-4.488 4.352-5.224 5.04-.369.343-.55.503-.592.538-.021.018-.018.01.09-.066.054-.038.113-.093.357-.209.06-.029.239-.098.238-.098l.436-.11.853.011.508.152.365.19a2.5 2.5 0 0 0-3.1.348 2.5 2.5 0 0 0 0 3.535l.436.347 1.729.354.435-.111s.18-.07.243-.1c.247-.118.315-.175.382-.223.136-.095.19-.144.268-.211.158-.134.368-.324.764-.693.792-.74 2.31-2.19 5.306-5.118 5.993-5.856 17.885-17.614 41.532-41.261a2.5 2.5 0 0 0 0-3.535 2.5 2.5 0 0 0-1.768-.733" style="baseline-shift:baseline;display:inline;overflow:visible;vector-effect:none;stroke-linecap:round;paint-order:markers fill stroke;stop-color:#000;stop-opacity:1" transform="translate(-39.864 -1599.147)"/></g></svg>